<svg width="316" height="58" viewBox="0 0 316 58" fill="none" xmlns="http://www.w3.org/2000/svg">
<g clip-path="url(#clip0_1004_2872)">
<path d="M116.363 37.527C117.309 35.6361 118.254 33.9634 119.127 32.2179C119.563 31.4179 119.927 30.5452 120.218 29.6724C120.509 28.9452 120.218 28.3634 119.418 28.1452C117.891 27.7088 115.563 27.7815 114.618 29.9634C113.6 32.3634 112.363 34.6179 111.127 36.9452C110.982 37.2361 110.545 37.527 110.254 37.527C107.782 37.5997 105.309 37.527 102.691 37.527C103.127 36.6543 103.491 35.927 103.854 35.127C104.654 33.4543 105.527 31.7815 106.327 30.1088C106.909 28.9452 106.472 28.0724 105.163 27.9997C102.836 27.8543 101.745 28.2179 100.872 30.2543C99.8543 32.5088 98.6907 34.7634 97.527 36.9452C97.3816 37.1634 97.0907 37.527 96.8725 37.527C94.1816 37.5997 91.4907 37.527 88.6543 37.527C89.4543 35.927 90.1088 34.4724 90.9088 33.0179C92.1452 30.6179 93.5997 28.2906 94.6179 25.8179C95.1997 24.2906 95.9998 24.1452 97.3816 24.2179C99.1998 24.2906 101.091 24.2179 102.982 24.2179C103.272 24.2179 103.636 24.2179 104.072 24.2906C103.636 25.1634 103.272 25.9634 102.909 26.6906C104.8 24.6543 107.2 24.3634 109.672 24.3634C112.145 24.2906 114.545 24.4361 116.582 26.327C118.254 24.7997 120.363 24.2906 122.618 24.3634C124.291 24.4361 125.963 24.5815 127.563 25.0179C129.236 25.4543 129.891 26.9815 129.163 28.6543C128.727 29.8179 128.072 30.9088 127.563 31.9997C126.691 33.6724 125.891 35.3452 125.018 37.0179C124.872 37.2361 124.582 37.527 124.291 37.527C121.672 37.527 119.127 37.527 116.363 37.527Z" fill="#003FA2"/>
<path d="M16.4365 37.5998C18.1093 34.3998 19.6365 31.3452 21.2365 28.3634C22.982 25.0179 24.7274 21.6725 26.4002 18.327C26.6911 17.6725 26.982 17.4543 27.6365 17.527C32.8729 17.527 38.1093 17.527 43.3456 17.5998C44.4365 17.5998 45.6002 17.8907 46.6183 18.327C48.2911 18.9816 49.1638 20.5816 48.7274 22.3998C47.9274 25.5998 46.4002 28.3634 43.9274 30.6179C42.4729 31.927 40.7274 32.3634 38.7638 32.4361C35.3456 32.4361 31.8547 32.5089 28.4365 32.4361C27.5638 32.4361 27.1274 32.727 26.7638 33.527C26.182 34.8361 25.5274 35.9998 24.8729 37.2361C24.7274 37.4543 24.4365 37.7452 24.1456 37.7452C21.6729 37.5998 19.1274 37.5998 16.4365 37.5998ZM29.8183 27.3452C32.0729 27.3452 34.1093 27.3452 36.2183 27.3452C38.1093 27.3452 39.3456 26.6907 40.1456 24.9452C40.9456 23.2725 40.4365 22.1816 38.5456 22.1816C36.7274 22.1089 34.9093 22.1816 33.0911 22.1816C32.8729 22.1816 32.5093 22.327 32.3638 22.4725C31.4911 23.9998 30.6911 25.5998 29.8183 27.3452Z" fill="#003FA2"/>
<path d="M213.091 18.2551C212.073 17.8187 210.909 17.5278 209.818 17.5278C204.582 17.4551 199.709 17.5278 194.473 17.4551C193.818 17.4551 193.527 17.6733 193.237 18.2551C191.564 21.6005 189.891 24.8733 188.146 28.146C187.2 29.9642 186.255 31.8551 185.309 33.6733C184.655 34.9824 183.927 36.3642 183.2 37.6733C183.2 37.6733 199.782 37.6005 203.2 37.6005C205.091 37.6005 206.909 37.0914 208.364 35.7824C210.255 34.1096 210.909 32.146 211.782 29.8914C212 29.3096 211.564 28.5096 210.982 28.0733C210.982 28.0733 212.8 28.0733 213.6 26.6187C214.255 25.2369 214.909 23.7824 215.273 22.2551C215.637 20.5824 214.764 18.9096 213.091 18.2551ZM199.782 21.0914C199.855 20.8733 200.218 20.8005 200.509 20.8005C202.327 20.8005 204.146 20.7278 205.964 20.8005C207.855 20.8733 208.727 21.2369 207.927 22.9824C207.127 24.7278 205.891 25.3824 204 25.3824C201.891 25.3824 199.855 25.3824 197.6 25.3824C198.473 23.4914 198.982 22.6187 199.782 21.0914ZM195.564 29.0187C195.637 28.8005 196 28.7278 196.291 28.7278C198.109 28.7278 199.927 28.6551 201.746 28.7278C203.637 28.8005 204.437 29.4551 203.637 31.1278C202.837 32.8733 201.6 33.5278 199.709 33.5278C197.6 33.5278 195.564 33.5278 193.309 33.5278C194.109 31.7096 194.691 30.546 195.564 29.0187Z" fill="#003FA2"/>
<path d="M141.527 37.5286C142.618 35.3468 143.564 33.3832 144.509 31.3468C145.309 29.6741 144.873 28.8741 143.054 28.8014C141.673 28.7286 140.291 28.7286 138.836 28.8014C137.454 28.8741 136.073 30.4741 136.073 31.7832C136.073 32.6559 136.654 32.9468 137.382 32.9468C138.4 33.0195 139.491 32.9468 140.509 32.9468C140.873 32.9468 141.236 32.9468 141.745 32.9468C140.945 34.4741 140.291 35.8559 139.564 37.2377C139.491 37.4559 139.054 37.5286 138.836 37.5286C136.8 37.5286 134.764 37.6014 132.8 37.5286C129.382 37.4559 127.782 35.0559 129.091 31.9286C129.964 29.965 131.127 28.1468 132.436 26.4741C133.091 25.6014 134.4 25.0195 135.491 24.6559C138.182 23.8559 140.873 24.0741 143.636 24.5104C145.673 24.8014 145.964 25.2377 146.764 27.2014C147.2 26.3286 147.491 25.5286 147.927 24.8014C148.073 24.5104 148.436 24.2195 148.727 24.2195C151.273 24.1468 153.891 24.2195 156.436 24.2195C156.509 24.2195 156.582 24.2923 156.873 24.365C156.218 25.6014 155.491 26.8377 154.836 28.0014C153.309 30.9104 151.782 33.8195 150.327 36.7286C150.036 37.3104 149.745 37.5286 149.091 37.5286C146.618 37.5286 144.145 37.5286 141.527 37.5286Z" fill="#003FA2"/>
<path d="M72.3642 24.2192C70.4733 27.9283 68.6551 31.4919 66.8369 34.9828C65.8915 36.8738 64.2187 37.5283 62.1824 37.5283C56.6551 37.5283 51.2005 37.5283 45.6733 37.5283C44.0733 37.5283 43.5642 36.6556 44.2915 35.1283C45.2369 33.1647 46.1824 31.201 47.2005 29.2374C48.0005 27.7101 48.7278 26.1828 49.5278 24.6556C49.6733 24.4374 49.8915 24.1465 50.1096 24.1465C52.8005 24.1465 55.4915 24.1465 58.4005 24.1465C57.4551 25.8919 56.7278 27.4192 56.0005 28.9465C55.4915 29.9647 54.9824 30.9828 54.546 32.001C54.1096 33.0919 54.4733 33.7465 55.5642 33.8192C56.3642 33.8919 57.1642 33.9647 57.8914 33.7465C58.546 33.5283 59.2733 33.0192 59.5642 32.4374C60.8733 30.0374 62.1096 27.4919 63.2733 25.0192C63.5642 24.4374 63.8551 24.1465 64.5824 24.1465C67.1278 24.2192 69.6005 24.2192 72.3642 24.2192Z" fill="#003FA2"/>
<path d="M239.055 24.2197C237.164 27.9288 235.346 31.4924 233.527 34.9833C232.582 36.8742 230.909 37.5288 228.873 37.5288C223.346 37.5288 217.891 37.5288 212.364 37.5288C210.764 37.5288 210.255 36.656 210.982 35.1288C211.927 33.1651 212.873 31.2015 213.891 29.2379C214.691 27.7106 215.418 26.1833 216.218 24.656C216.364 24.4379 216.582 24.1469 216.8 24.1469C219.491 24.1469 222.182 24.1469 225.091 24.1469C224.291 25.8197 223.491 27.3469 222.764 28.8742C222.255 29.8924 221.746 30.9106 221.309 31.9288C220.873 33.0197 221.236 33.6742 222.327 33.7469C223.127 33.8197 223.927 33.8924 224.655 33.6742C225.309 33.456 226.036 32.9469 226.327 32.3651C227.636 29.9651 228.873 27.4197 230.036 24.9469C230.327 24.3651 230.618 24.0742 231.346 24.0742C233.818 24.2197 236.291 24.2197 239.055 24.2197Z" fill="#003FA2"/>
<path d="M243.419 24.2197C242.255 24.2197 241.528 24.8742 241.018 25.8924C239.709 28.5833 240 28.0742 238.691 30.7651C238.328 31.5651 238.618 32.0015 239.491 32.0015C240.655 32.0015 241.891 32.0015 243.055 32.0015C243.419 32.0015 249.528 32.0015 250.837 32.0015C251.2 32.1469 251.346 32.4379 251.2 32.9469C251.055 33.3106 250.982 33.456 250.691 33.7469C250.4 34.0379 250.037 34.256 249.673 34.256C248.146 34.3288 239.128 34.3288 237.6 34.3288C237.237 34.3288 237.019 34.4015 236.873 34.7651C236.291 36.0015 236.146 36.2197 235.491 37.5288C237.818 37.456 254.328 37.456 256.509 37.3833C257.673 37.3833 258.4 36.7288 258.909 35.7106C260.218 33.0197 260 33.6015 261.309 30.9106C261.673 30.1106 261.382 29.6742 260.509 29.6742C259.346 29.6742 258.109 29.6742 256.946 29.6742C256.582 29.6742 250.182 29.6742 248.873 29.6742C248.509 29.5288 248.364 29.2379 248.509 28.7288C248.655 28.3651 248.728 28.2197 249.018 27.9288C249.309 27.6379 249.673 27.4197 250.037 27.4197C251.564 27.3469 260.582 27.3469 262.109 27.3469C262.473 27.3469 262.691 27.2742 262.837 26.9106C263.418 25.6742 263.491 25.3833 264.146 24.0742C261.819 24.1469 245.6 24.1469 243.419 24.2197Z" fill="#003FA2"/>
<path d="M153.019 37.5285C154.473 34.5466 155.855 31.8557 157.309 29.0921C158.037 27.6375 158.764 26.183 159.491 24.8012C159.637 24.583 159.928 24.2921 160.146 24.2921C162.837 24.2194 165.455 24.2921 168.291 24.2921C167.928 25.0921 167.637 25.6739 167.273 26.4739C170.837 23.9285 174.619 23.9285 178.546 25.0194C180.291 25.5285 180.946 27.2012 180.146 28.8739C178.764 31.6375 177.382 34.3285 176 37.0194C175.855 37.2375 175.564 37.6012 175.346 37.6012C172.655 37.6739 169.964 37.6012 167.055 37.6012C167.928 35.9285 168.728 34.4012 169.455 32.8739C169.964 31.9285 170.473 30.9103 170.837 29.8921C171.2 29.0194 170.909 28.4375 170.037 28.1466C168.219 27.4921 166.328 28.2194 165.455 29.9648C164.291 32.2921 163.128 34.6921 161.891 37.0194C161.746 37.3103 161.382 37.6012 161.091 37.6012C158.546 37.5285 155.855 37.5285 153.019 37.5285Z" fill="#003FA2"/>
<path d="M97.0915 17.5278C95.7097 20.2914 94.4006 22.9096 93.0915 25.4551C91.2006 29.2369 89.237 33.0187 87.3461 36.8733C87.0552 37.3824 86.7642 37.6005 86.1824 37.6005C83.7824 37.5278 81.4551 37.6005 78.9824 37.6005C79.9279 35.7824 80.7279 34.0369 81.6006 32.2914C83.9279 27.6369 86.2552 22.9824 88.5824 18.3278C88.8733 17.6733 89.237 17.4551 89.9642 17.4551C92.2915 17.5278 94.5461 17.5278 97.0915 17.5278Z" fill="#003FA2"/>
<path d="M68.291 37.6012C69.3092 35.5649 70.2547 33.6012 71.2728 31.7103C73.5274 27.2739 75.7819 22.8376 77.9637 18.4012C78.2546 17.7467 78.5456 17.4558 79.2728 17.5285C81.6001 17.6012 83.8547 17.5285 86.3274 17.5285C85.6001 18.983 85.0183 20.2921 84.3637 21.6012C81.7456 26.7649 79.2001 31.8558 76.5819 37.0194C76.4365 37.3103 76.0728 37.6012 75.7819 37.6012C73.3092 37.6012 70.9092 37.6012 68.291 37.6012Z" fill="#003FA2"/>
<path d="M263.131 35.7103H263.712C263.858 35.7103 264.003 35.7103 264.076 35.783C264.149 35.8558 264.149 36.0012 264.149 36.1467V36.4376C264.149 36.5103 264.149 36.583 264.149 36.7285C264.149 36.8012 264.149 36.8012 264.222 36.8739H264.949V36.8012C264.876 36.7285 264.876 36.7285 264.803 36.6558C264.803 36.583 264.803 36.5103 264.803 36.3648V36.1467C264.803 35.9285 264.803 35.783 264.731 35.7103C264.658 35.6376 264.585 35.4921 264.44 35.4921C264.585 35.4194 264.731 35.3467 264.803 35.2012C264.876 35.0558 264.876 34.9103 264.876 34.7648C264.876 34.6194 264.876 34.5467 264.803 34.4739C264.731 34.4012 264.731 34.3285 264.658 34.2558C264.585 34.183 264.512 34.1103 264.367 34.0376C264.222 33.9648 264.076 33.9648 263.858 33.9648H262.403V36.9467H262.985V35.7103H263.131ZM263.131 34.4012H263.858C264.003 34.4012 264.076 34.4012 264.149 34.4739C264.294 34.5467 264.294 34.6921 264.294 34.8376C264.294 34.983 264.221 35.1285 264.149 35.2012C264.076 35.2012 264.003 35.2739 263.858 35.2739H263.203V34.4012H263.131Z" fill="#003FA2"/>
<path d="M263.785 38.1103C265.312 38.1103 266.476 36.874 266.476 35.4194C266.476 33.8922 265.239 32.7285 263.785 32.7285C262.257 32.7285 261.094 33.9649 261.094 35.4194C261.021 36.874 262.257 38.1103 263.785 38.1103ZM263.785 33.0922C265.094 33.0922 266.112 34.1103 266.112 35.4194C266.112 36.7285 265.094 37.7467 263.785 37.7467C262.476 37.7467 261.458 36.7285 261.458 35.4194C261.458 34.1103 262.476 33.0922 263.785 33.0922Z" fill="#003FA2"/>
<path d="M273.163 16.5103L281.599 27.2012L270.399 38.1103L269.672 46.9103L288.726 27.2012L273.817 8.72852L273.163 16.5103Z" fill="#E75F00"/>
<path d="M283.636 16.5826L292 27.2735L280.8 38.1826L280.072 46.9826L299.2 27.2735L284.29 8.80078L283.636 16.5826Z" fill="#003FA2"/>
</g>
<defs>
<clipPath id="clip0_1004_2872">
<rect width="283.636" height="40" fill="white" transform="translate(16 8)"/>
</clipPath>
</defs>
</svg>
